<?xml version="1.0" encoding="UTF-8" standalone="no" ?>
<!DOCTYPE svg PUBLIC "-//W3C//DTD SVG 1.1//EN" "http://www.w3.org/Graphics/SVG/1.1/DTD/svg11.dtd">
<svg xmlns="http://www.w3.org/2000/svg" xmlns:xlink="http://www.w3.org/1999/xlink" version="1.1" width="500" height="500" viewBox="0 0 500 500" xml:space="preserve">
<desc>Created with Fabric.js 4.6.0</desc>
<defs>
</defs>
<g transform="matrix(1 0 0 1 250 250)" id="URhd5JiiaPRx_HaqpPIvk"  >
<path style="stroke: rgb(230,23,8); stroke-width: 0; stroke-dasharray: none; stroke-linecap: butt; stroke-dashoffset: 0; stroke-linejoin: miter; stroke-miterlimit: 4; fill: rgb(5,9,92); fill-rule: nonzero; opacity: 1;" vector-effect="non-scaling-stroke"  transform=" translate(-250, -250)" d="M 250 0 C 388 0 500 112 500 250 C 500 388 388 500 250 500 C 112 500 0 388 0 250 C 0 112 112 0 250 0 z" stroke-linecap="round" />
</g>
<g transform="matrix(1 0 0 1 250 250)" id="jxTFOGZJQvpu9pyleMtsM"  >
<path style="stroke: rgb(223,107,10); stroke-width: 0; stroke-dasharray: none; stroke-linecap: butt; stroke-dashoffset: 0; stroke-linejoin: miter; stroke-miterlimit: 4; fill: rgb(255,255,255); fill-rule: nonzero; opacity: 1;" vector-effect="non-scaling-stroke"  transform=" translate(-129.5, -129.5)" d="M 129.5 0 C 200.98399999999998 0 259 58.016 259 129.5 C 259 200.98399999999998 200.984 259 129.5 259 C 58.016000000000005 259 0 200.984 0 129.5 C 0 58.016000000000005 58.016 0 129.5 0 z" stroke-linecap="round" />
</g>
</svg>